<svg width="26" height="25" viewBox="0 0 26 25" fill="none" xmlns="http://www.w3.org/2000/svg">
<path d="M25 1.00097L0.999982 1.00097C4.16515 4.17215 13 8.20818 13 6.40638C13 1.001 20.5976 1.92589 25 1.00097Z" fill="#E3C4AD"/>
<path fill-rule="evenodd" clip-rule="evenodd" d="M12.1056 23.2121C12.4741 23.9492 13.5259 23.9492 13.8944 23.2121L25 1.00097C20.5976 1.92589 13 1.001 13 6.40638C13 8.20818 4.16515 4.17215 0.999982 1.00097L12.1056 23.2121Z" fill="#DCA780"/>
<path d="M0.999982 1.00097L25 1.00097M0.999982 1.00097C4.16515 4.17215 13 8.20818 13 6.40638C13 1.001 20.5976 1.92589 25 1.00097M0.999982 1.00097L12.1056 23.2121C12.4741 23.9492 13.5259 23.9492 13.8944 23.2121L25 1.00097" stroke="#664100" stroke-width="2" stroke-miterlimit="1"/>
</svg>
