
<svg width="500" height="500"  viewBox="0 0 500 500" xmlns="http://www.w3.org/2000/svg">
  <defs></defs>
  <path d="M 429.978 90.64 C 429.969 82.119 426.934 73.849 421.35 67.171 C 415.764 60.505 407.968 55.818 399.235 53.879 L 389.155 19.139 C 387.325 13.526 383.611 8.619 378.603 5.171 C 373.584 1.725 367.524 -0.089 361.333 0.006 L 138.41 0.006 C 132.249 -0.119 126.202 1.682 121.223 5.14 C 116.244 8.599 112.593 13.514 110.845 19.139 L 100.775 53.879 C 91.724 56.058 83.721 61.118 78.126 68.223 C 72.521 75.328 69.672 84.035 70.03 92.91 C 70.011 100.951 72.735 108.786 77.807 115.233 C 82.868 121.68 90.006 126.389 98.132 128.661 L 100.775 198.388 C 96.537 199.044 92.629 200.993 89.646 203.93 C 87.774 205.805 86.313 208.023 85.356 210.441 C 84.401 212.866 83.968 215.44 84.081 218.031 L 90.436 363.041 C 90.634 367.501 92.464 371.75 95.613 375.063 C 98.758 378.365 103.018 380.532 107.667 381.167 L 109.784 437.05 C 110.331 453.978 117.818 470.03 130.644 481.781 C 143.46 493.54 160.618 500.07 178.442 499.998 L 321.3 499.998 C 339.166 500.124 356.385 493.612 369.263 481.853 C 382.141 470.093 389.66 454.022 390.214 437.05 L 392.343 381.167 C 396.942 380.468 401.138 378.282 404.233 374.98 C 407.319 371.677 409.119 367.458 409.304 363.041 L 415.661 218.031 C 415.776 215.44 415.343 212.866 414.386 210.441 C 413.429 208.023 411.968 205.805 410.097 203.93 C 407.216 200.993 403.401 199.044 399.235 198.388 L 401.877 128.661 C 410.272 126.077 417.554 120.963 422.615 114.109 C 427.685 107.253 430.267 99.015 429.978 90.64 Z M 138.41 25.183 L 363.45 25.942 L 371.401 52.88 L 129.143 52.88 L 138.41 25.183 Z M 363.717 436.301 C 363.38 446.718 358.75 456.604 350.811 463.812 C 342.879 471.009 332.286 474.968 321.3 474.822 L 178.442 474.822 C 167.498 474.925 156.956 470.945 149.077 463.737 C 141.197 456.542 136.61 446.688 136.291 436.301 L 134.171 381.416 L 365.837 381.416 L 363.717 436.301 Z M 194.344 289.781 C 194.344 279.324 197.604 269.107 203.724 260.408 C 209.843 251.71 218.537 244.939 228.709 240.94 C 238.871 236.927 250.062 235.887 260.863 237.928 C 271.663 239.971 281.576 245.002 289.363 252.397 C 297.15 259.793 302.447 269.209 304.597 279.459 C 306.746 289.719 305.646 300.356 301.429 310.01 C 297.22 319.667 290.083 327.927 280.93 333.74 C 271.774 339.543 261.015 342.647 250 342.647 C 235.238 342.647 221.087 337.072 210.646 327.167 C 200.207 317.251 194.344 303.804 194.344 289.781 Z M 372.73 197.888 L 127.281 197.888 L 124.627 130.67 L 375.116 130.67 L 372.73 197.888 Z M 390.214 105.492 L 109.784 105.492 C 107.862 105.431 105.968 104.992 104.232 104.192 C 102.493 103.388 100.95 102.254 99.694 100.858 C 98.451 99.452 97.524 97.826 96.978 96.066 C 96.434 94.307 96.281 92.462 96.537 90.64 C 96.537 87.308 97.937 84.099 100.416 81.744 C 102.903 79.378 106.278 78.058 109.784 78.058 L 390.214 78.058 C 392.136 78.141 394.02 78.598 395.748 79.402 C 397.476 80.214 399.009 81.35 400.253 82.734 C 401.498 84.13 402.423 85.754 402.979 87.504 C 403.534 89.256 403.699 91.087 403.472 92.91 C 403.472 96.243 402.073 99.442 399.595 101.806 C 397.105 104.17 393.731 105.492 390.214 105.492 Z" fill="#A07250" style=""></path>
</svg>