<svg width="35" height="48" viewBox="0 0 35 48" fill="none" xmlns="http://www.w3.org/2000/svg">
<path d="M34.9978 8.70138C34.9973 7.88313 34.7016 7.08912 34.1589 6.44847C33.6161 5.80782 32.8583 5.3582 32.0086 5.17274L31.0293 1.83744C30.8506 1.29812 30.4903 0.827638 30.0025 0.49649C29.5147 0.165343 28.9257 -0.00863769 28.3236 0.000617402H6.65149C6.0517 -0.0117313 5.46426 0.161459 4.97988 0.493443C4.4955 0.825428 4.14112 1.29774 3.97147 1.83744L2.99224 5.17274C2.11153 5.38104 1.33392 5.86691 0.7897 6.54893C0.245483 7.23095 -0.0322693 8.06767 0.00298668 8.9189C0.000847398 9.69117 0.265979 10.4432 0.758543 11.0621C1.25111 11.681 1.9445 12.1332 2.73454 12.3509L2.99224 19.0456C2.57965 19.1084 2.1999 19.295 1.90992 19.5773C1.72779 19.7575 1.58605 19.9701 1.4931 20.2026C1.40014 20.4351 1.35786 20.6827 1.36876 20.9308L1.98723 34.852C2.00601 35.2798 2.18376 35.688 2.48967 36.0058C2.79559 36.3236 3.2104 36.531 3.66224 36.5921L3.8684 41.9576C3.92146 43.582 4.64889 45.1228 5.89564 46.2515C7.1424 47.3801 8.80988 48.0075 10.5427 47.9998H24.4324C26.1692 48.0126 27.8425 47.3877 29.0945 46.2586C30.3465 45.1295 31.078 43.5858 31.1324 41.9576L31.3386 36.5921C31.7855 36.5255 32.194 36.3157 32.4947 35.9984C32.7954 35.6812 32.9696 35.2761 32.9878 34.852L33.6063 20.9308C33.6172 20.6827 33.5749 20.4351 33.4819 20.2026C33.389 19.9701 33.2473 19.7575 33.0651 19.5773C32.7854 19.2953 32.4138 19.1083 32.0086 19.0456L32.2663 12.3509C33.082 12.1028 33.7897 11.6126 34.2824 10.9543C34.7751 10.296 35.0262 9.50525 34.9978 8.70138ZM6.65149 2.4175L28.5297 2.49L29.3028 5.07606H5.74956L6.65149 2.4175ZM28.5555 41.8851C28.5231 42.8856 28.0727 43.8341 27.3013 44.5259C26.53 45.2177 25.4995 45.5973 24.4324 45.5829H10.5427C9.47937 45.5928 8.45438 45.211 7.68816 44.5195C6.92193 43.8279 6.47567 42.882 6.44534 41.8851L6.23918 36.6163H28.7616L28.5555 41.8851ZM12.0888 27.8189C12.0888 26.8151 12.4062 25.8338 13.0008 24.9991C13.5955 24.1645 14.4407 23.5139 15.4295 23.1298C16.4183 22.7456 17.5064 22.6451 18.5562 22.841C19.6059 23.0368 20.5701 23.5202 21.327 24.23C22.0838 24.9398 22.5992 25.8442 22.808 26.8287C23.0168 27.8132 22.9096 28.8338 22.5 29.7612C22.0905 30.6886 21.3968 31.4813 20.5069 32.039C19.617 32.5967 18.5707 32.8943 17.5004 32.8943C16.0652 32.8943 14.6887 32.3596 13.6738 31.4078C12.659 30.4559 12.0888 29.165 12.0888 27.8189ZM29.4316 18.9973H5.56918L5.31148 12.5442H29.6636L29.4316 18.9973ZM31.1324 10.1273H3.8684C3.68079 10.1214 3.49659 10.0788 3.32762 10.0021C3.15865 9.9254 3.00867 9.8164 2.88731 9.68209C2.76595 9.54778 2.67591 9.39114 2.62297 9.22224C2.57003 9.05334 2.55537 8.87591 2.57993 8.70138C2.57993 8.38088 2.71568 8.07351 2.95731 7.84688C3.19895 7.62026 3.52667 7.49294 3.8684 7.49294H31.1324C31.3192 7.501 31.5023 7.5451 31.6701 7.62248C31.8379 7.69986 31.987 7.80886 32.1079 7.94267C32.2288 8.07648 32.319 8.23222 32.3728 8.40019C32.4267 8.56816 32.4431 8.74473 32.4209 8.9189C32.4209 9.23939 32.2851 9.54676 32.0435 9.77339C31.8019 10 31.4741 10.1273 31.1324 10.1273Z" fill="#A07250"/>
</svg>
