<svg viewBox="0 0 500 500" width="48" height="48" xmlns="http://www.w3.org/2000/svg">
  <path fill-rule="evenodd" clip-rule="evenodd"
    d="M 69.683 450.021 L 29.568 0 L 470.433 0 L 430.276 449.948 L 249.724 500 L 69.683 450.021 Z M 395.891 421.292 L 250.006 461.74 L 250.006 400.646 L 137.026 369.292 L 129.287 282.625 L 184.693 282.625 L 188.62 326.646 L 250.006 343.229 L 249.995 255.021 L 249.995 255.031 L 189.308 255.031 L 188.203 242.636 L 185.693 214.646 L 184.37 199.844 L 249.995 199.834 L 249.995 143.323 L 116.881 143.313 L 115.766 130.917 L 113.256 102.938 L 111.933 88.125 L 249.995 88.125 L 250.006 36.802 L 430.203 36.802 L 395.891 421.292 Z"
    fill="#A07250"></path>
  <path
    d="M 249.995 199.834 L 323.037 199.834 L 328.078 143.323 L 250.006 143.313 L 249.995 143.323 L 249.995 199.834 Z"
    fill="#DCA780"></path>
  <path
    d="M 318.131 255.021 L 249.995 255.021 L 250.006 343.229 L 250.089 343.25 L 250.141 343.229 L 250.141 343.219 L 311.693 326.604 L 318.131 255.021 Z"
    fill="#DCA780"></path>
  <path
    d="M 249.995 143.323 L 249.995 88.125 L 111.933 88.125 L 113.256 102.938 L 115.766 130.917 L 116.881 143.313 L 249.995 143.323 Z"
    fill="#DCA780"></path>
  <path
    d="M 188.62 326.646 L 184.693 282.625 L 129.287 282.625 L 137.026 369.292 L 250.006 400.646 L 250.006 343.229 L 188.62 326.646 Z"
    fill="#DCA780"></path>
  <path
    d="M 250.006 461.74 L 395.891 421.292 L 430.203 36.802 L 250.006 36.802 L 249.995 88.125 L 250.193 88.125 L 388.401 88.125 L 387.078 102.938 L 373.516 255.021 L 364.12 359.959 L 363.287 369.292 L 250.339 400.594 L 250.078 400.667 L 250.006 400.646 L 250.006 461.74 Z"
    fill="#DCA780"></path>
  <path
    d="M 323.037 199.834 L 249.995 199.834 L 249.995 255.021 L 318.131 255.021 L 373.516 255.021 L 387.078 102.938 L 388.401 88.125 L 250.193 88.125 L 250.193 143.313 L 250.006 143.313 L 249.995 143.323 L 328.078 143.323 L 323.037 199.834 Z"
    fill="#E3C4AD"></path>
  <path
    d="M 311.693 326.604 L 250.141 343.219 L 250.141 343.229 L 250.328 343.177 L 250.339 400.594 L 363.287 369.292 L 364.12 359.959 L 373.516 255.021 L 318.131 255.021 L 311.693 326.604 Z"
    fill="#E3C4AD"></path>
  <path
    d="M 249.995 255.021 L 249.995 199.834 L 184.37 199.844 L 185.693 214.646 L 188.203 242.636 L 189.308 255.031 L 249.995 255.031 L 249.995 255.021 Z"
    fill="#DCA780"></path>
</svg>