<svg viewBox="0 0 500 500" xmlns="http://www.w3.org/2000/svg">
  <defs></defs>
  <path fill-rule="evenodd" clip-rule="evenodd" d="M 215.552 0 L 299.425 0 L 299.425 375.23 C 256.466 383.167 224.843 386.28 190.616 386.28 C 88.188 386.177 34.858 341.51 34.858 255.709 C 34.858 173.052 91.42 119.406 179.069 119.406 C 192.671 119.406 203.031 120.447 215.552 123.573 L 215.552 0 Z M 190.21 187.019 C 200.58 187.019 208.672 188.062 218.496 191.198 L 218.496 321.364 C 206.509 322.926 198.953 323.437 189.674 323.437 C 146.718 323.437 123.289 299.635 123.289 256.541 C 123.289 212.282 147.796 187.019 190.21 187.019 Z" fill="#A07250" style=""></path>
  <path d="M 344.363 0 L 428.234 0 L 428.234 83.187 L 344.363 83.187 L 344.363 0 Z" fill="#A07250" style=""></path>
  <path d="M 436.571 129.478 L 436.571 317.344 C 436.571 382.052 431.606 413.156 417.04 439.988 C 403.439 465.77 385.523 482.041 348.494 500 L 270.669 464.198 C 307.697 447.407 325.613 432.564 337.052 409.917 C 349.039 386.759 352.817 359.926 352.817 289.374 L 352.817 129.478 L 436.571 129.478 Z" fill="#A07250" style=""></path>
</svg>