<svg viewBox="0 0 500 500" width="48" height="48" xmlns="http://www.w3.org/2000/svg">
  <path
    d="M 155.121 305.556 L 155.121 196.627 L 161.06 196.627 L 161.06 213.76 C 161.759 213.001 162.408 212.196 163 211.348 C 165.426 206.33 169.237 202.107 173.986 199.172 C 178.737 196.237 184.231 194.715 189.819 194.774 C 203.352 194.372 214.343 199.358 220.806 211.348 C 224.917 218.793 227.18 227.113 227.403 235.607 C 227.629 244.103 225.81 252.529 222.098 260.182 C 216.078 273.617 201.213 280.293 185.296 277.839 C 180.343 277.423 175.574 275.774 171.426 273.048 C 167.278 270.321 163.88 266.603 161.541 262.233 L 161.541 305.556 L 155.121 305.556 Z M 161.06 235.158 C 161.584 240.468 161.788 244.251 162.394 247.955 C 164.737 262.515 173.38 271.164 186.954 272.733 C 193.324 273.774 199.866 272.584 205.454 269.367 C 211.047 266.145 215.343 261.094 217.611 255.07 C 220.223 248.881 221.477 242.205 221.296 235.492 C 221.116 228.779 219.5 222.177 216.565 216.135 C 214.139 210.737 210.019 206.274 204.824 203.413 C 199.629 200.552 193.639 199.455 187.759 200.284 C 182.241 200.682 176.986 202.784 172.723 206.293 C 168.458 209.807 165.398 214.552 163.968 219.876 C 162.704 224.909 161.731 230.015 161.06 235.158 Z M 348.537 249.964 C 347.635 257.635 343.968 264.719 338.217 269.895 C 332.468 275.076 325.023 277.997 317.268 278.121 C 292.384 279.367 280.713 262.917 278.852 243.932 C 277.565 233.621 279.245 223.154 283.699 213.76 C 286.806 207.317 291.884 202.025 298.213 198.645 C 304.537 195.27 311.778 193.982 318.884 194.974 C 325.643 195.548 332.047 198.219 337.194 202.617 C 342.343 207.011 345.972 212.909 347.565 219.474 C 348.829 225.45 349.76 231.492 350.352 237.576 L 284.954 237.576 C 283.741 254.793 293.033 268.631 306.199 271.968 C 322.602 275.992 336.621 268.909 341.709 253.386 C 342.838 249.399 344.898 248.839 348.537 249.964 Z M 284.954 232.062 L 343.407 232.062 C 343.042 213.719 331.57 200.446 316.019 200.246 C 298.403 199.964 285.723 212.756 284.954 232.062 Z M 360.574 250.367 L 366.311 250.367 C 366.523 254.57 367.894 258.631 370.274 262.113 C 372.653 265.589 375.949 268.344 379.801 270.076 C 384.639 272.242 389.903 273.297 395.204 273.158 C 400.505 273.019 405.709 271.691 410.421 269.274 C 412.991 268.117 415.144 266.209 416.588 263.797 C 418.033 261.39 418.699 258.599 418.5 255.797 C 418.648 253.099 417.907 250.423 416.394 248.182 C 414.876 245.936 412.666 244.246 410.097 243.367 C 403.796 241.034 397.093 239.746 390.666 237.695 C 383.986 235.802 377.449 233.423 371.115 230.576 C 360.774 225.548 360.129 205.955 371.843 199.76 C 377.843 196.39 384.593 194.57 391.482 194.464 C 398.366 194.358 405.172 195.974 411.268 199.158 C 414.963 201.191 417.949 204.297 419.825 208.066 C 421.704 211.83 422.38 216.076 421.774 220.237 L 416.843 220.237 C 416.843 219.997 416.398 219.793 416.398 219.552 C 415.796 203.904 402.625 199.08 388.486 200.446 C 384.264 200.964 380.166 202.205 376.366 204.107 C 374.088 205.145 372.186 206.866 370.927 209.025 C 369.666 211.186 369.111 213.686 369.338 216.172 C 369.347 218.664 370.125 221.089 371.574 223.121 C 373.019 225.154 375.06 226.686 377.417 227.519 C 383.639 229.77 390.144 231.219 396.523 232.987 C 401.658 234.395 406.986 235.321 411.958 237.011 C 415.463 238.154 418.537 240.335 420.774 243.256 C 423.009 246.182 424.301 249.715 424.482 253.386 C 425.079 257.404 424.389 261.515 422.514 265.121 C 420.635 268.733 417.662 271.664 414.019 273.497 C 400.523 281.099 378.306 279.089 368.412 269.474 C 365.903 266.96 363.917 263.978 362.574 260.701 C 361.227 257.423 360.546 253.909 360.574 250.367 Z M 497.19 220.237 L 491.819 220.237 C 491.819 219.515 491.533 218.872 491.454 218.266 C 491.366 214.256 489.898 210.399 487.297 207.335 C 484.69 204.274 481.111 202.196 477.153 201.45 C 469.686 199.315 461.717 199.7 454.495 202.538 C 451.635 203.353 449.121 205.066 447.325 207.423 C 445.523 209.779 444.542 212.654 444.514 215.613 C 444.417 218.519 445.325 221.372 447.093 223.686 C 448.856 226.001 451.37 227.64 454.209 228.321 C 462.287 230.817 470.57 232.344 478.768 234.599 C 481.426 235.233 484.042 236.025 486.607 236.974 C 490.431 238.335 493.76 240.817 496.144 244.089 C 498.533 247.362 499.876 251.279 499.991 255.325 C 500.111 259.372 499 263.358 496.805 266.766 C 494.611 270.172 491.44 272.839 487.699 274.423 C 481.995 277.001 475.819 278.362 469.556 278.427 C 463.297 278.487 457.093 277.246 451.343 274.784 C 446.611 272.751 442.621 269.325 439.907 264.968 C 437.19 260.613 435.88 255.529 436.153 250.409 L 441.403 250.409 C 442.376 255.076 444.477 259.436 447.523 263.113 C 450.564 266.788 454.468 269.672 458.88 271.511 C 463.297 273.348 468.097 274.089 472.866 273.664 C 477.635 273.237 482.223 271.664 486.241 269.07 C 488.69 267.807 490.723 265.867 492.097 263.483 C 493.472 261.103 494.13 258.381 494 255.635 C 494.121 252.936 493.352 250.266 491.815 248.038 C 490.278 245.811 488.051 244.14 485.477 243.288 C 479.172 240.955 472.468 239.705 466.046 237.654 C 459.325 235.788 452.75 233.436 446.376 230.617 C 436.274 225.668 435.468 206.237 446.982 200.043 C 453.051 196.533 459.935 194.645 466.954 194.566 C 473.977 194.492 480.903 196.223 487.051 199.603 C 490.57 201.691 493.398 204.756 495.199 208.417 C 497 212.084 497.69 216.191 497.19 220.237 Z M 145.306 276.15 C 143.19 276.95 140.857 276.946 138.741 276.145 C 136.625 275.344 134.88 273.802 133.833 271.807 C 127.25 261.992 119.977 252.617 112.986 243.048 L 109.959 239.025 C 101.639 250.126 93.315 260.784 85.722 271.848 C 84.731 273.756 83.079 275.237 81.074 276.025 C 79.065 276.807 76.843 276.839 74.815 276.113 L 106.041 234.395 L 76.996 196.705 C 79.088 195.955 81.375 195.941 83.472 196.677 C 85.57 197.409 87.347 198.839 88.509 200.728 C 95.255 210.543 102.727 219.913 110.162 229.853 C 117.635 219.997 125.028 210.584 131.935 200.848 C 132.931 198.974 134.584 197.525 136.578 196.784 C 138.574 196.043 140.773 196.056 142.759 196.825 L 131.49 211.709 C 126.439 218.348 121.472 225.025 116.222 231.501 C 115.796 231.876 115.459 232.339 115.227 232.858 C 114.996 233.372 114.875 233.932 114.875 234.497 C 114.875 235.062 114.996 235.621 115.227 236.14 C 115.459 236.654 115.796 237.117 116.222 237.492 C 125.875 250.246 135.449 263.038 145.306 276.15 Z M 277.884 196.302 L 277.884 201.936 C 273.796 201.668 269.699 202.256 265.857 203.664 C 262.014 205.07 258.514 207.266 255.574 210.103 C 252.635 212.946 250.325 216.362 248.796 220.145 C 247.268 223.927 246.556 227.987 246.699 232.062 L 246.699 276.311 L 240.921 276.311 L 240.921 196.627 L 246.578 196.627 L 246.578 212.955 C 253.565 201.048 264.352 196.627 277.884 196.302 Z M 0 233.872 C 0.851 229.853 1.375 225.468 2.547 221.362 C 9.537 196.627 38.014 186.325 57.606 201.654 C 69.079 210.621 71.945 223.335 71.38 237.654 L 6.751 237.654 C 5.7 263.237 24.241 278.686 47.949 270.802 C 51.796 269.432 55.241 267.131 57.972 264.103 C 60.7 261.076 62.629 257.417 63.584 253.464 C 64.838 249.441 66.857 248.756 70.694 249.923 C 70.06 254.821 68.324 259.511 65.606 263.645 C 62.894 267.774 59.273 271.242 55.019 273.779 C 47.996 277.603 39.931 279.121 31.986 278.107 C 24.041 277.099 16.62 273.613 10.787 268.145 C 5.014 261.682 1.523 253.519 0.851 244.895 C 0.851 243.529 0.324 242.158 0.041 240.872 C 0.014 238.487 0 236.154 0 233.872 Z M 6.829 232.145 L 65.282 232.145 C 64.917 213.599 53.162 200.446 37.49 200.325 C 20.037 200.084 7.555 212.955 6.787 232.062 L 6.829 232.145 Z"
    fill="#DCA780" stroke="#DCA780"></path>
</svg>