<svg viewBox="0 0 500 500" width="48" height="48" xmlns="http://www.w3.org/2000/svg">
  <path d="M 165.698 166.667 L 249.937 166.667 L 249.937 0 L 165.634 0 C 143.282 0.011 121.864 8.801 106.063 24.429 C 90.269 40.053 81.395 61.24 81.395 83.333 C 81.395 105.426 90.282 126.624 106.084 142.261 C 121.895 157.885 143.343 166.667 165.698 166.667 Z" fill="#A07250" style=""></path>
  <path d="M 165.698 333.333 L 249.997 333.333 L 249.997 249.999 L 249.997 166.667 L 249.937 166.667 L 165.698 166.667 C 143.343 166.667 121.895 175.437 106.084 191.072 C 90.282 206.698 81.395 227.896 81.395 249.999 C 81.395 272.093 90.282 293.291 106.084 308.928 C 121.895 324.552 143.343 333.333 165.698 333.333 Z" fill="#DCA780" style=""></path>
  <path d="M 165.698 500 C 188.051 500 209.499 491.217 225.313 475.593 C 241.114 459.958 249.997 438.77 249.997 416.665 L 249.997 333.333 L 165.698 333.333 C 143.343 333.333 121.895 342.115 106.084 357.739 C 90.282 373.365 81.395 394.563 81.395 416.665 C 81.395 438.77 90.282 459.958 106.084 475.593 C 121.895 491.217 143.343 500 165.698 500 Z" fill="#E3C4AD" style=""></path>
  <path d="M 334.302 0 L 249.997 0 L 249.997 166.667 L 334.302 166.667 C 356.655 166.667 378.101 157.885 393.915 142.261 C 409.717 126.624 418.604 105.426 418.604 83.333 C 418.604 61.23 409.717 40.031 393.915 24.407 C 378.101 8.781 356.655 0 334.302 0 Z" fill="#DCA780" style=""></path>
  <path d="M 393.915 308.928 C 409.717 293.291 418.604 272.093 418.604 249.999 C 418.604 227.896 409.717 206.698 393.915 191.072 C 378.101 175.437 356.655 166.667 334.302 166.667 C 311.947 166.667 290.497 175.437 274.686 191.072 C 258.884 206.698 249.997 227.896 249.997 249.999 C 249.997 272.093 258.884 293.291 274.686 308.928 C 290.497 324.552 311.947 333.333 334.302 333.333 C 356.655 333.333 378.101 324.552 393.915 308.928 Z" fill="#E3C4AD" style=""></path>
</svg>