<svg viewBox="0 0 500 500" width="48" height="48" xmlns="http://www.w3.org/2000/svg">
  <path d="M 490.562 227.812 L 272.281 9.437 C 269.281 6.437 265.75 4.062 261.844 2.437 C 257.937 0.844 253.75 0 249.5 0 C 245.281 0 241.094 0.844 237.187 2.437 C 233.281 4.062 229.75 6.437 226.75 9.437 L 181.437 54.781 L 238.937 112.281 C 252.312 107.594 267.625 110.812 278.281 121.469 C 283.344 126.562 286.875 132.969 288.5 139.969 C 290.094 146.969 289.687 154.281 287.344 161.062 L 342.781 216.5 C 356.187 211.875 371.656 214.844 382.344 225.594 C 385.906 229.156 388.719 233.375 390.656 238.031 C 392.562 242.687 393.562 247.656 393.562 252.687 C 393.562 257.75 392.562 262.719 390.656 267.375 C 388.719 272.031 385.906 276.25 382.344 279.812 C 378.781 283.375 374.562 286.187 369.906 288.125 C 365.25 290.031 360.281 291.031 355.25 291.031 C 350.219 291.031 345.219 290.031 340.562 288.125 C 335.937 286.187 331.719 283.375 328.156 279.812 C 316.906 268.562 314.125 251.969 319.812 238.125 L 268.125 186.406 L 268.125 322.469 C 271.875 324.344 275.312 326.781 278.281 329.719 C 281.844 333.281 284.656 337.5 286.594 342.156 C 288.5 346.812 289.5 351.781 289.5 356.844 C 289.5 361.875 288.5 366.844 286.594 371.5 C 284.656 376.156 281.844 380.375 278.281 383.937 C 274.719 387.5 270.5 390.312 265.844 392.25 C 261.187 394.156 256.219 395.156 251.187 395.156 C 246.156 395.156 241.156 394.156 236.531 392.25 C 231.875 390.312 227.656 387.5 224.094 383.937 C 220.531 380.375 217.687 376.156 215.781 371.5 C 213.844 366.844 212.844 361.875 212.844 356.844 C 212.844 351.781 213.844 346.812 215.781 342.156 C 217.687 337.5 220.531 333.281 224.094 329.719 C 227.781 326.031 231.906 323.25 236.625 321.375 L 236.625 184.031 C 232.062 182.156 227.781 179.406 224.094 175.656 C 218.719 170.281 215.062 163.437 213.594 155.969 C 212.125 148.5 212.906 140.781 215.844 133.75 L 159.125 77.062 L 9.437 226.625 C 6.437 229.625 4.062 233.187 2.469 237.094 C 0.844 241 0 245.187 0 249.437 C 0 253.656 0.844 257.844 2.469 261.75 C 4.062 265.656 6.437 269.219 9.437 272.219 L 227.75 490.562 C 230.719 493.562 234.281 495.937 238.187 497.562 C 242.094 499.156 246.281 500 250.5 500 C 254.75 500 258.937 499.156 262.844 497.562 C 266.75 495.937 270.281 493.562 273.281 490.562 L 490.562 273.531 C 493.562 270.531 495.937 267 497.562 263.094 C 499.156 259.187 500 254.969 500 250.75 C 500 246.531 499.156 242.344 497.562 238.406 C 495.937 234.5 493.562 230.969 490.562 227.969" fill="#A07250"></path>
</svg>