<svg viewBox="0 0 500 500" width="48" height="48" xmlns="http://www.w3.org/2000/svg">
  <path
    d="M 249.812 347.094 L 249.749 347.104 L 187.312 330.511 L 183.312 286.49 L 127.02 286.49 L 134.874 373.156 L 249.739 404.542 L 249.999 404.469 L 249.812 404.511 L 249.812 347.094 Z"
    fill="#DCA780"></path>
  <path
    d="M 249.999 203.709 L 249.999 258.896 L 318.854 258.896 L 312.354 330.479 L 249.999 347.042 L 249.999 404.469 L 364.77 373.156 L 365.604 363.823 L 378.781 218.521 L 380.156 203.709 L 365.041 203.709 L 249.999 203.709 Z"
    fill="#E3C4AD"></path>
  <path
    d="M 249.812 203.709 L 175.801 203.709 L 170.676 147.188 L 249.812 147.188 L 249.812 91.99 L 109.395 91.99 L 110.729 106.802 L 124.52 258.896 L 249.812 258.896 L 249.812 203.709 Z"
    fill="#DCA780"></path>
  <path
    d="M 249.999 91.99 L 249.999 147.188 L 385.26 147.188 L 386.374 134.771 L 388.937 106.802 L 390.281 91.99 L 249.999 91.99 Z"
    fill="#E3C4AD"></path>
  <path fill-rule="evenodd" clip-rule="evenodd"
    d="M 66.812 450.021 L 26.041 0 L 473.958 0 L 433.156 449.948 L 249.729 500 L 66.812 450.021 Z M 398.218 421.302 L 249.999 461.75 L 249.999 404.469 L 249.739 404.542 L 134.874 373.156 L 127.02 286.49 L 183.312 286.49 L 187.312 330.511 L 249.749 347.104 L 249.812 347.094 L 249.999 347.042 L 249.999 258.896 L 249.812 258.896 L 124.52 258.896 L 110.729 106.802 L 109.395 91.99 L 249.812 91.99 L 249.999 91.99 L 249.999 36.802 L 433.093 36.802 L 398.218 421.302 Z"
    fill="#A07250"></path>
  <path
    d="M 249.999 461.75 L 398.218 421.302 L 433.093 36.802 L 249.999 36.802 L 249.999 91.99 L 390.281 91.99 L 388.937 106.802 L 386.374 134.771 L 385.26 147.188 L 249.999 147.188 L 249.999 203.709 L 365.041 203.709 L 380.156 203.709 L 378.781 218.521 L 365.604 363.823 L 364.77 373.156 L 249.999 404.469 L 249.999 461.75 Z"
    fill="#DCA780"></path>
  <path
    d="M 249.812 203.709 L 249.999 203.709 L 249.999 147.188 L 249.812 147.188 L 170.676 147.188 L 175.801 203.709 L 249.812 203.709 Z"
    fill="#A07250"></path>
  <path d="M 318.854 258.896 L 249.999 258.896 L 249.999 347.042 L 312.354 330.479 L 318.854 258.896 Z" fill="#DCA780">
  </path>
</svg>