

<svg width="24" height="24" viewBox="0 0 500 500" xmlns="http://www.w3.org/2000/svg">
  <path fill-rule="evenodd" clip-rule="evenodd" d="M 250.242 125.11 C 181.147 125.11 125.128 181.129 125.128 250.224 C 125.128 319.318 181.147 375.337 250.242 375.337 C 319.336 375.337 375.355 319.318 375.355 250.224 C 375.355 181.129 319.336 125.11 250.242 125.11 Z M 172.045 250.224 C 172.045 293.325 207.14 328.42 250.242 328.42 C 293.343 328.42 328.438 293.325 328.438 250.224 C 328.438 207.091 293.343 172.027 250.242 172.027 C 207.14 172.027 172.045 207.091 172.045 250.224 Z" fill="#A07250" style=""></path>
  <path d="M 401.41 115.726 C 401.41 124.933 393.945 132.398 384.739 132.398 C 375.533 132.398 368.067 124.933 368.067 115.726 C 368.067 106.52 375.533 99.055 384.739 99.055 C 393.945 99.055 401.41 106.52 401.41 115.726 Z" fill="#A07250" style=""></path>
  <path fill-rule="evenodd" clip-rule="evenodd" d="M 344.077 -0.004 L 156.406 -0.004 C 70.046 -0.004 0.014 70.028 0.014 156.388 L 0.014 344.059 C 0.014 430.419 70.046 500.451 156.406 500.451 L 344.077 500.451 C 430.437 500.451 500.469 430.419 500.469 344.059 L 500.469 156.388 C 500.469 70.028 430.437 -0.004 344.077 -0.004 Z M 344.077 453.533 C 404.444 453.533 453.551 404.426 453.551 344.059 L 453.551 156.388 C 453.551 96.021 404.444 46.914 344.077 46.914 L 156.406 46.914 C 96.039 46.914 46.932 96.021 46.932 156.388 L 46.932 344.059 C 46.932 404.426 96.039 453.533 156.406 453.533 L 344.077 453.533 Z" fill="#A07250" style=""></path>
</svg>