
<svg width="24" height="24"  viewBox="0 0 500 500" xmlns="http://www.w3.org/2000/svg">
  <defs></defs>
  <path d="M 109.388 54.764 C 109.388 84.969 84.901 109.447 54.704 109.447 C 24.496 109.447 0.019 84.969 0.019 54.764 C 0.019 24.568 24.496 0.078 54.704 0.078 C 84.901 0.078 109.388 24.568 109.388 54.764 Z" fill="#A07250" style=""></path>
  <path d="M 0.019 156.321 L 111.824 156.321 L 111.824 500.052 L 0.019 500.052 L 0.019 156.321 Z" fill="#A07250" style=""></path>
  <path d="M 416.372 160.351 C 415.183 159.976 414.058 159.571 412.808 159.224 C 411.31 158.882 409.81 158.601 408.278 158.352 C 402.341 157.164 395.841 156.321 388.217 156.321 C 323.032 156.321 281.691 203.723 268.067 222.035 L 268.067 156.321 L 156.261 156.321 L 156.261 500.052 L 268.067 500.052 L 268.067 312.562 C 268.067 312.562 352.564 194.882 388.217 281.314 L 388.217 500.052 L 499.993 500.052 L 499.993 268.095 C 499.993 216.162 464.399 172.882 416.372 160.351 Z" fill="#A07250" style=""></path>
</svg>