<svg viewBox="0 0 500 500" width="48" height="48" xmlns="http://www.w3.org/2000/svg">
  <path
    d="M 399.549 357.831 C 405.059 357.831 416.08 353.706 416.08 353.706 C 416.257 353.175 416.476 352.529 416.726 351.8 C 413.955 351.227 411.434 352.321 410.57 352.321 C 407.288 353.05 402.861 354.935 397.768 356.904 C 397.695 356.987 397.622 357.071 397.549 357.164 C 398.643 357.591 399.351 357.831 399.549 357.831 Z"
    fill="#A07250"></path>
  <path
    d="M 169.528 214.612 L 191.57 173.3 L 190.612 151.31 C 189.466 149.217 188.81 146.925 188.81 144.383 C 188.81 136.123 194.32 133.373 202.591 126.488 L 202.789 126.29 C 196.945 121.758 192.945 112.446 192.945 101.696 C 192.945 86.488 200.966 74.154 210.851 74.154 C 220.737 74.154 228.757 86.488 228.757 101.696 C 228.757 105.415 228.278 108.956 227.403 112.196 C 229.664 111.654 231.966 111.331 234.268 111.331 C 240.007 111.331 246.143 112.717 251.924 114.592 C 250.32 110.3 249.414 105.456 249.414 100.321 C 249.414 82.831 259.903 68.644 272.83 68.644 C 285.768 68.644 296.247 82.831 296.247 100.321 C 296.247 111.3 292.112 120.977 285.841 126.654 C 292.778 128.863 297.903 131.977 297.726 137.748 L 304.507 137.498 L 327.924 193.956 L 410.57 294.487 L 390.257 348.362 C 393.486 349.821 395.82 351.758 396.788 353.706 C 396.788 355.081 398.174 356.456 398.174 356.456 C 398.038 356.591 397.903 356.737 397.768 356.904 C 402.861 354.935 407.288 353.05 410.57 352.321 C 411.434 352.321 413.955 351.227 416.726 351.8 C 418.445 346.862 421.591 338.019 421.591 334.425 C 431.226 302.748 407.809 251.8 385.778 220.123 C 363.736 188.456 345.83 169.175 336.195 129.238 C 326.549 89.3 338.945 100.321 330.684 65.894 C 326.549 47.988 319.664 35.602 312.778 25.956 C 304.507 16.321 294.872 10.811 289.362 9.436 C 276.966 2.55 248.039 -8.471 212.226 10.811 C 175.039 30.092 179.174 71.404 186.06 155.404 C 186.06 160.915 184.685 167.8 181.924 173.3 C 176.414 185.696 166.778 196.717 158.507 206.352 C 148.872 220.123 139.226 233.894 132.341 249.039 C 115.81 280.717 100.664 320.654 104.799 335.8 C 104.987 335.758 105.237 335.821 105.539 335.987 C 108.362 334.154 111.539 333.05 115.81 333.05 C 119.58 333.05 124.153 336.102 128.872 340.675 L 128.205 338.55 L 130.112 322.956 C 128.976 317.644 128.664 311.498 129.591 304.123 C 130.966 288.977 136.476 276.581 143.362 262.81 C 146.112 257.31 152.997 246.289 152.997 246.289 C 152.997 246.289 152.57 247.362 151.841 249.269 L 169.528 214.612 Z"
    fill="#A07250"></path>
  <path
    d="M 272.83 68.644 C 259.903 68.644 249.414 82.831 249.414 100.321 C 249.414 105.456 250.32 110.3 251.924 114.592 C 255.268 115.665 258.497 116.915 261.455 118.144 C 259.112 114.935 257.684 110.602 257.684 105.831 C 257.684 95.946 263.851 87.925 271.455 87.925 C 279.059 87.925 285.226 95.946 285.226 105.831 C 285.226 114.738 280.216 122.133 273.664 123.508 C 273.851 123.581 274.028 123.654 274.205 123.727 C 278.247 124.623 282.278 125.519 285.841 126.654 C 292.112 120.977 296.247 111.3 296.247 100.321 C 296.247 82.831 285.768 68.644 272.83 68.644 Z"
    fill="#E3C4AD"></path>
  <path
    d="M 210.851 74.154 C 200.966 74.154 192.945 86.488 192.945 101.696 C 192.945 112.446 196.945 121.758 202.789 126.29 C 203.632 125.477 206.237 123.165 209.924 120.592 C 205.976 118.748 202.612 113.06 201.726 105.998 C 200.58 96.946 203.935 89.06 209.216 88.394 C 214.497 87.727 219.705 94.529 220.851 103.581 C 221.393 107.81 220.945 111.79 219.778 114.894 C 222.205 113.779 224.768 112.831 227.403 112.196 C 228.278 108.956 228.757 105.415 228.757 101.696 C 228.757 86.488 220.737 74.154 210.851 74.154 Z"
    fill="#E3C4AD"></path>
  <path
    d="M 188.81 418.425 C 205.341 439.081 239.778 445.966 260.434 441.831 C 282.101 438.008 304.934 425.935 319.143 414.341 C 319.32 412.977 319.497 411.591 319.664 410.164 C 321.039 400.518 321.039 388.133 321.039 377.112 C 321.039 363.341 321.039 359.206 323.799 353.706 C 326.549 348.196 329.299 345.435 336.195 345.435 C 343.08 345.435 347.205 349.571 349.966 352.321 C 349.966 350.946 348.591 350.946 348.591 350.946 C 352.507 347.019 358.924 343.091 370.195 343.894 C 374.091 337.112 384.278 315.331 383.018 288.977 C 381.643 253.175 343.08 235.269 343.08 235.269 C 406.434 283.467 352.716 341.31 349.966 341.31 C 351.341 334.425 351.341 327.539 351.341 323.404 C 351.341 302.748 348.591 282.092 344.455 266.946 C 340.32 253.175 333.434 242.164 327.924 229.769 C 316.903 203.602 297.622 154.029 296.247 148.519 C 296.216 148.446 296.195 148.373 296.164 148.31 C 294.455 154.55 290.955 157.362 281.101 162.29 C 271.455 165.04 253.549 180.185 241.153 180.185 C 235.643 180.185 227.382 180.185 221.872 178.81 C 217.737 177.435 210.851 170.55 203.966 163.665 C 202.403 162.623 200.893 161.581 199.466 160.519 C 199.049 166.092 198.455 172.456 198.455 178.81 C 197.08 200.852 176.414 236.654 168.153 246.289 C 159.893 255.925 152.997 273.831 148.872 286.227 C 143.362 304.123 141.987 322.029 141.987 322.029 C 131.278 306.571 147.278 261.321 151.841 249.269 L 135.091 282.092 L 130.112 322.956 C 130.674 325.591 131.435 328.019 132.341 330.289 C 133.716 331.675 135.091 334.425 137.851 337.175 L 148.872 348.196 C 154.382 353.696 159.893 357.831 169.528 366.091 C 179.174 374.352 199.83 389.508 202.591 393.633 C 205.341 397.768 208.101 404.654 203.966 411.539 C 202.591 414.289 198.455 415.664 194.32 417.05 C 192.945 418.425 190.195 418.425 188.81 418.425 Z"
    fill="#E3C4AD"></path>
  <path
    d="M 294.872 450.091 L 209.476 450.091 L 198.028 443.675 C 200.435 448.841 201.705 454.612 201.205 462.487 C 201.205 464.779 201.112 466.935 200.924 468.966 C 209.112 467.998 229.601 467.998 247.945 467.998 L 248.039 467.998 C 275.455 466.695 291.737 465.393 313.299 469.945 C 312.955 467.248 312.778 464.3 312.778 461.112 C 312.778 452.789 314.289 444.456 316.091 433.998 L 294.872 450.091 Z"
    fill="#A07250"></path>
  <path fill-rule="evenodd" clip-rule="evenodd"
    d="M 202.591 126.488 C 194.32 133.373 188.81 136.123 188.81 144.383 C 188.81 146.925 189.466 149.217 190.612 151.31 L 190.195 141.633 L 274.382 138.592 C 281.695 134.477 284.153 133.519 286.601 134.748 C 287.893 135.394 287.07 136.633 285.132 138.196 L 297.726 137.748 C 297.903 131.977 292.778 128.863 285.841 126.654 C 282.122 130.029 277.643 131.988 272.83 131.988 C 263.695 131.988 255.778 124.915 251.924 114.592 C 246.143 112.717 240.007 111.331 234.268 111.331 C 231.966 111.331 229.664 111.654 227.403 112.196 C 226.382 116.04 224.799 119.435 222.83 122.165 C 223.257 121.769 223.83 121.373 224.622 120.977 C 228.757 120.977 230.132 122.352 227.382 123.727 C 225.997 123.727 224.622 125.102 223.247 126.477 C 223.247 127.863 220.497 126.488 220.497 125.102 C 220.903 124.696 221.195 124.29 221.466 123.873 C 218.497 127.248 214.82 129.238 210.851 129.238 C 207.945 129.238 205.205 128.175 202.789 126.29 L 202.591 126.488 Z M 248.039 126.488 C 246.664 125.113 243.903 125.113 242.528 122.352 C 242.528 120.977 249.414 120.977 249.414 123.727 C 250.799 123.727 252.174 126.488 250.799 127.863 C 250.799 127.863 249.414 127.863 248.039 126.488 Z"
    fill="#DCA780"></path>
  <path
    d="M 222.83 122.165 C 224.799 119.435 226.382 116.04 227.403 112.196 C 224.768 112.831 222.205 113.779 219.778 114.894 C 218.445 118.425 216.174 120.831 213.362 121.185 C 212.195 121.331 211.039 121.113 209.924 120.592 C 206.237 123.165 203.632 125.477 202.789 126.29 C 205.205 128.175 207.945 129.238 210.851 129.238 C 214.82 129.238 218.497 127.248 221.466 123.873 C 221.851 123.31 222.205 122.738 222.83 122.165 Z"
    fill="#DCA780"></path>
  <path
    d="M 213.362 121.185 C 216.174 120.831 218.445 118.425 219.778 114.894 C 216.06 116.581 212.685 118.665 209.924 120.592 C 211.039 121.113 212.195 121.331 213.362 121.185 Z"
    fill="#DCA780"></path>
  <path
    d="M 271.455 123.727 C 272.205 123.727 272.945 123.654 273.664 123.508 C 270.862 122.342 266.549 120.258 261.455 118.144 C 263.966 121.581 267.518 123.727 271.455 123.727 Z"
    fill="#DCA780"></path>
  <path
    d="M 272.83 131.988 C 277.643 131.988 282.122 130.029 285.841 126.654 C 282.278 125.519 278.247 124.623 274.205 123.727 C 274.028 123.654 273.851 123.581 273.664 123.508 C 272.945 123.654 272.205 123.727 271.455 123.727 C 267.518 123.727 263.966 121.581 261.455 118.144 C 258.497 116.915 255.268 115.665 251.924 114.592 C 255.778 124.915 263.695 131.988 272.83 131.988 Z"
    fill="#DCA780"></path>
  <path
    d="M 234.268 156.779 C 238.393 156.779 243.903 154.029 248.039 152.644 C 255.58 148.883 261.976 146.258 269.309 141.644 C 245.757 141.404 213.83 146.06 203.205 149.873 C 204.007 150.477 204.747 150.967 205.341 151.269 C 206.716 151.269 208.091 152.644 210.851 154.019 C 214.987 155.404 217.737 156.779 221.872 156.779 L 234.268 156.779 Z"
    fill="#DCA780"></path>
  <path
    d="M 192.945 144.383 C 191.57 143.008 194.32 143.008 194.32 143.008 C 196.476 144.081 200.32 147.685 203.205 149.873 C 213.83 146.06 245.757 141.404 269.309 141.644 C 270.018 141.196 270.726 140.738 271.455 140.248 C 272.507 139.644 273.487 139.092 274.382 138.592 L 190.195 141.633 L 190.612 151.31 C 192.487 154.748 195.664 157.706 199.466 160.519 C 199.674 157.654 199.83 154.987 199.83 152.644 C 199.466 152.279 199.549 151.883 200.018 151.456 L 192.945 144.383 Z"
    fill="#DCA780"></path>
  <path
    d="M 241.153 180.185 C 253.549 180.185 271.455 165.04 281.101 162.29 C 290.955 157.362 294.455 154.55 296.164 148.31 C 294.674 144.821 288.247 142.915 279.351 142.102 C 278.143 142.852 276.862 143.623 275.591 144.383 C 268.695 147.144 267.32 149.894 257.684 154.019 C 248.039 159.529 238.393 162.29 231.507 162.29 L 219.112 162.29 C 219.112 162.29 214.987 160.915 212.226 159.529 C 208.101 158.154 203.966 155.404 201.205 152.644 L 200.018 151.456 C 199.549 151.883 199.466 152.279 199.83 152.644 C 199.83 154.987 199.674 157.654 199.466 160.519 C 200.893 161.581 202.403 162.623 203.966 163.665 C 210.851 170.55 217.737 177.435 221.872 178.81 C 227.382 180.185 235.643 180.185 241.153 180.185 Z"
    fill="#DCA780"></path>
  <path
    d="M 297.726 137.748 L 285.132 138.196 C 283.695 139.363 281.632 140.706 279.351 142.102 C 288.247 142.915 294.674 144.821 296.164 148.31 C 296.841 145.821 297.237 142.8 297.622 138.873 C 297.684 138.488 297.716 138.113 297.726 137.748 Z"
    fill="#DCA780"></path>
  <path
    d="M 242.528 122.352 C 243.903 125.113 246.664 125.113 248.039 126.488 C 249.414 127.863 250.799 127.863 250.799 127.863 C 252.174 126.488 250.799 123.727 249.414 123.727 C 249.414 120.977 242.528 120.977 242.528 122.352 Z"
    fill="#A07250"></path>
  <path
    d="M 220.497 125.102 C 220.497 126.488 223.247 127.863 223.247 126.477 C 224.622 125.102 225.997 123.727 227.382 123.727 C 230.132 122.352 228.757 120.977 224.622 120.977 C 223.83 121.373 223.257 121.769 222.83 122.165 C 222.393 122.769 221.935 123.342 221.466 123.873 C 221.195 124.29 220.903 124.696 220.497 125.102 Z"
    fill="#A07250"></path>
  <path
    d="M 201.205 152.644 C 203.966 155.404 208.101 158.154 212.226 159.529 C 214.987 160.915 219.112 162.29 219.112 162.29 L 231.507 162.29 C 238.393 162.29 248.039 159.529 257.684 154.019 C 267.32 149.894 268.695 147.144 275.591 144.383 C 276.862 143.623 278.143 142.852 279.351 142.102 C 276.268 141.821 272.882 141.675 269.309 141.644 C 261.976 146.258 255.58 148.883 248.039 152.644 C 243.903 154.029 238.393 156.779 234.268 156.779 L 221.872 156.779 C 217.737 156.779 214.987 155.404 210.851 154.019 C 208.091 152.644 206.716 151.269 205.341 151.269 C 204.747 150.967 204.007 150.477 203.205 149.873 C 201.664 150.425 200.57 150.956 200.018 151.456 L 201.205 152.644 Z"
    fill="#A07250"></path>
  <path
    d="M 194.32 143.008 C 194.32 143.008 191.57 143.008 192.945 144.383 L 200.018 151.456 C 200.57 150.956 201.664 150.425 203.205 149.873 C 200.32 147.685 196.476 144.081 194.32 143.008 Z"
    fill="#A07250"></path>
  <path
    d="M 274.382 138.592 C 273.487 139.092 272.507 139.644 271.455 140.248 C 270.726 140.738 270.018 141.196 269.309 141.644 C 272.882 141.675 276.268 141.821 279.351 142.102 C 281.632 140.706 283.695 139.363 285.132 138.196 L 274.382 138.592 Z"
    fill="#A07250"></path>
  <path
    d="M 286.601 134.748 C 284.153 133.519 281.695 134.477 274.382 138.592 L 285.132 138.196 C 287.07 136.633 287.893 135.394 286.601 134.748 Z"
    fill="#A07250"></path>
  <path
    d="M 271.455 87.925 C 263.851 87.925 257.684 95.946 257.684 105.831 C 257.684 110.602 259.112 114.935 261.455 118.144 C 266.549 120.258 270.862 122.342 273.664 123.508 C 280.216 122.133 285.226 114.738 285.226 105.831 C 285.226 95.946 279.059 87.925 271.455 87.925 Z"
    fill="#A07250"></path>
  <path
    d="M 220.851 103.581 C 219.705 94.529 214.497 87.727 209.216 88.394 C 203.935 89.06 200.58 96.946 201.726 105.998 C 202.612 113.06 205.976 118.748 209.924 120.592 C 212.685 118.665 216.06 116.581 219.778 114.894 C 220.945 111.79 221.393 107.81 220.851 103.581 Z"
    fill="#A07250"></path>
  <path
    d="M 191.57 173.3 L 169.528 214.612 L 151.841 249.269 C 147.278 261.321 131.278 306.571 141.987 322.029 C 141.987 322.029 143.362 304.123 148.872 286.227 C 152.997 273.831 159.893 255.925 168.153 246.289 C 176.414 236.654 197.08 200.852 198.455 178.81 C 198.455 172.456 199.049 166.092 199.466 160.519 C 195.664 157.706 192.487 154.748 190.612 151.31 L 191.57 173.3 Z"
    fill="#A07250"></path>
  <path
    d="M 410.57 294.487 L 327.924 193.956 L 304.507 137.498 L 297.726 137.748 C 297.716 138.113 297.684 138.488 297.622 138.873 C 297.237 142.8 296.841 145.821 296.164 148.31 C 296.195 148.373 296.216 148.446 296.247 148.519 C 297.622 154.029 316.903 203.602 327.924 229.769 C 333.434 242.164 340.32 253.175 344.455 266.946 C 348.591 282.092 351.341 302.748 351.341 323.404 C 351.341 327.539 351.341 334.425 349.966 341.31 C 352.716 341.31 406.434 283.467 343.08 235.269 C 343.08 235.269 381.643 253.175 383.018 288.977 C 384.278 315.331 374.091 337.112 370.195 343.894 C 370.778 343.935 371.382 343.987 371.997 344.06 C 374.757 344.06 381.643 345.435 385.778 346.821 C 387.403 347.227 388.913 347.748 390.257 348.362 L 410.57 294.487 Z"
    fill="#A07250"></path>
  <path
    d="M 209.476 450.091 L 294.872 450.091 L 316.091 433.998 C 317.091 428.216 318.174 421.789 319.143 414.341 C 304.934 425.935 282.101 438.008 260.434 441.831 C 239.778 445.966 205.341 439.081 188.81 418.425 C 190.195 418.425 192.945 418.425 194.32 417.05 C 198.455 415.664 202.591 414.289 203.966 411.539 C 208.101 404.654 205.341 397.768 202.591 393.633 C 199.83 389.508 179.174 374.352 169.528 366.091 C 159.893 357.831 154.382 353.696 148.872 348.196 L 137.851 337.175 C 135.091 334.425 133.716 331.675 132.341 330.289 C 131.435 328.019 130.674 325.591 130.112 322.956 L 128.205 338.55 L 128.872 340.675 C 137.945 349.487 147.56 363.914 152.997 372.977 C 162.643 386.748 164.018 390.883 177.799 412.914 C 185.757 427.071 193.716 434.404 198.028 443.675 L 209.476 450.091 Z"
    fill="#A07250"></path>
  <path
    d="M 143.362 262.81 C 136.476 276.581 130.966 288.977 129.591 304.123 C 128.664 311.498 128.976 317.644 130.112 322.956 L 135.091 282.092 L 151.841 249.269 C 152.57 247.362 152.997 246.289 152.997 246.289 C 152.997 246.289 146.112 257.31 143.362 262.81 Z"
    fill="#A07250"></path>
  <path
    d="M 354.091 368.852 L 354.091 372.977 C 356.851 378.487 363.736 379.862 369.247 379.862 C 372.705 379.862 376.174 378.894 379.33 377.373 L 385.507 360.987 C 374.039 363.956 361.361 364.206 351.153 353.612 C 353.111 355.966 354.091 358.477 354.091 361.966 C 355.476 364.716 354.091 366.091 354.091 368.852 Z"
    fill="#A07250"></path>
  <path
    d="M 348.591 350.946 C 348.591 350.946 349.966 350.946 349.966 352.321 C 350.393 352.758 350.789 353.185 351.153 353.612 C 361.361 364.206 374.039 363.956 385.507 360.987 L 388.382 353.341 C 380.08 349.8 370.059 345.435 369.247 345.435 C 369.486 345.071 369.809 344.55 370.195 343.894 C 358.924 343.091 352.507 347.019 348.591 350.946 Z"
    fill="#A07250"></path>
  <path
    d="M 389.903 368.852 C 389.903 367.466 391.288 366.091 392.663 364.716 C 395.007 361.206 396.351 358.685 397.549 357.164 C 397.476 357.133 397.393 357.102 397.32 357.071 C 393.653 358.477 389.663 359.914 385.507 360.987 L 379.33 377.373 C 383.705 375.248 387.507 372.05 389.903 368.852 Z"
    fill="#A07250"></path>
  <path
    d="M 385.778 346.821 C 381.643 345.435 374.757 344.06 371.997 344.06 C 371.382 343.987 370.778 343.935 370.195 343.894 C 369.809 344.55 369.486 345.071 369.247 345.435 C 370.059 345.435 380.08 349.8 388.382 353.341 L 390.257 348.362 C 388.913 347.748 387.403 347.227 385.778 346.821 Z"
    fill="#A07250"></path>
  <path
    d="M 398.174 356.456 C 398.174 356.456 396.788 355.081 396.788 353.706 C 395.82 351.758 393.486 349.821 390.257 348.362 L 388.382 353.341 C 391.976 354.873 395.247 356.258 397.32 357.071 L 397.768 356.904 C 397.903 356.737 398.038 356.591 398.174 356.456 Z"
    fill="#A07250"></path>
  <path
    d="M 388.382 353.341 L 385.507 360.987 C 389.663 359.914 393.653 358.477 397.32 357.071 C 395.247 356.258 391.976 354.873 388.382 353.341 Z"
    fill="#A07250"></path>
  <path
    d="M 349.966 352.321 C 347.205 349.571 343.08 345.435 336.195 345.435 C 329.299 345.435 326.549 348.196 323.799 353.706 C 321.039 359.206 321.039 363.341 321.039 377.112 C 321.039 388.133 321.039 400.518 319.664 410.164 C 319.497 411.591 319.32 412.977 319.143 414.341 C 320.289 413.404 321.382 412.466 322.414 411.539 C 321.132 419.216 319.861 425.706 318.58 432.112 L 374.757 389.508 L 379.33 377.373 C 376.174 378.894 372.705 379.862 369.247 379.862 C 363.736 379.862 356.851 378.487 354.091 372.977 L 354.091 368.852 C 354.091 366.091 355.476 364.716 354.091 361.966 C 354.091 358.477 353.111 355.966 351.153 353.612 C 350.747 353.206 350.351 352.769 349.966 352.321 Z"
    fill="#DCA780"></path>
  <path
    d="M 315.528 458.362 C 315.528 462.487 316.903 466.623 316.903 470.758 C 315.684 470.466 314.486 470.195 313.299 469.945 C 314.58 480.07 318.07 486.768 322.414 490.029 C 326.549 494.164 333.434 496.914 348.591 496.914 C 363.736 496.914 373.382 491.404 383.018 481.768 C 389.903 474.883 395.413 472.133 414.695 458.362 C 429.851 448.716 453.268 436.331 457.393 432.196 C 460.153 429.446 464.288 428.06 464.288 419.8 C 464.288 412.914 458.778 410.164 454.643 408.789 C 449.132 406.029 439.497 401.893 431.226 389.508 C 427.091 382.623 428.476 363.341 421.591 355.081 C 420.059 353.05 418.351 352.133 416.726 351.8 C 416.476 352.529 416.257 353.175 416.08 353.706 C 416.08 353.706 405.059 357.831 399.549 357.831 C 399.351 357.831 398.643 357.591 397.549 357.164 C 396.351 358.685 395.007 361.206 392.663 364.716 C 391.288 366.091 389.903 367.466 389.903 368.852 C 387.507 372.05 383.705 375.248 379.33 377.373 L 374.757 389.508 L 318.58 432.112 L 318.289 433.571 C 316.903 443.216 315.528 450.091 315.528 458.362 Z"
    fill="#DCA780"></path>
  <path
    d="M 316.903 470.758 C 316.903 466.623 315.528 462.487 315.528 458.362 C 315.528 450.091 316.903 443.216 318.289 433.571 L 318.58 432.112 L 316.091 433.998 C 314.289 444.456 312.778 452.789 312.778 461.112 C 312.778 464.3 312.955 467.248 313.299 469.945 C 314.486 470.195 315.684 470.466 316.903 470.758 Z"
    fill="#DCA780"></path>
  <path
    d="M 318.58 432.112 C 319.861 425.706 321.132 419.216 322.414 411.539 C 321.382 412.466 320.289 413.404 319.143 414.341 C 318.174 421.789 317.091 428.216 316.091 433.998 L 318.58 432.112 Z"
    fill="#DCA780"></path>
  <path
    d="M 198.455 469.373 C 199.07 469.227 199.893 469.091 200.924 468.966 C 201.112 466.935 201.205 464.779 201.205 462.487 C 201.705 454.612 200.435 448.841 198.028 443.675 L 173.549 429.946 C 187.747 451.466 198.455 468.404 198.455 469.373 Z"
    fill="#DCA780"></path>
  <path
    d="M 177.799 412.914 C 164.018 390.883 162.643 386.748 152.997 372.977 C 147.56 363.914 137.945 349.487 128.872 340.675 L 142.153 383.466 C 152.716 398.685 163.935 415.362 173.549 429.946 L 198.028 443.675 C 193.716 434.404 185.757 427.071 177.799 412.914 Z"
    fill="#DCA780"></path>
  <path
    d="M 105.539 335.987 C 109.81 338.196 125.143 358.946 142.153 383.466 L 128.872 340.675 C 124.153 336.102 119.58 333.05 115.81 333.05 C 111.539 333.05 108.362 334.154 105.539 335.987 Z"
    fill="#DCA780"></path>
  <path d="M 142.153 383.466 L 152.997 418.425 L 173.549 429.946 C 163.935 415.362 152.716 398.685 142.153 383.466 Z"
    fill="#DCA780"></path>
  <path
    d="M 97.903 342.685 C 92.393 348.196 86.893 360.591 77.247 367.477 C 68.987 374.362 45.57 372.977 40.06 381.248 C 34.549 389.508 45.57 401.904 45.57 422.56 C 45.57 430.821 38.685 436.321 37.299 441.831 C 35.924 448.716 34.549 452.852 37.299 458.362 C 42.81 466.623 49.695 469.373 96.528 479.018 C 121.32 484.529 144.737 498.3 159.893 499.675 C 174.101 500.966 198.028 499.831 200.924 468.966 C 199.893 469.091 199.07 469.227 198.455 469.373 C 198.455 468.404 187.747 451.466 173.549 429.946 L 152.997 418.425 L 142.153 383.466 C 125.143 358.946 109.81 338.196 105.539 335.987 C 102.903 337.685 100.57 340.029 97.903 342.685 Z"
    fill="#DCA780"></path>
</svg>