<svg width="48" height="48" viewBox="0 0 48 48" fill="none" xmlns="http://www.w3.org/2000/svg">
<path fill-rule="evenodd" clip-rule="evenodd" d="M11.6146 7.8C10.8064 6.74652 11.0037 5.23606 12.0571 4.42793C13.1106 3.61738 14.621 3.81686 15.4292 4.87031C16.2397 5.92379 16.0401 7.43425 14.9866 8.24238C13.9332 9.05053 12.4227 8.85346 11.6146 7.8ZM16.9492 14.0197C17.7598 15.0732 17.5602 16.5837 16.5067 17.3918C15.4532 18.2023 13.9428 18.0029 13.1346 16.9494C12.3265 15.896 12.5237 14.3879 13.5772 13.5773C14.6307 12.7692 16.1411 12.9663 16.9492 14.0197ZM3.98536 16.0641C3.17482 15.0106 3.37446 13.5001 4.42793 12.692C5.48139 11.8839 6.98942 12.0809 7.79996 13.1344C8.6081 14.1878 8.4109 15.6983 7.35743 16.5064C6.30397 17.317 4.7935 17.1175 3.98536 16.0641ZM23.9483 43.1895C16.5957 43.1895 10.1979 39.0409 6.96057 32.9631C21.8438 34.2258 34.228 21.882 32.9629 6.96035C39.0407 10.1977 43.1897 16.5958 43.1897 23.9484C43.1897 34.5577 34.5575 43.1895 23.9483 43.1895ZM26.0023 0C34.9062 16.7063 16.6269 34.8628 0 26.0021C1.03182 38.1699 11.2394 48 23.9483 48C37.2321 48 48 37.2322 48 23.9484C48 11.2323 38.1628 1.03181 26.0023 0Z" fill="#A07250"/>
</svg>
