<svg viewBox="0 0 500 500" width="48" height="48"  xmlns="http://www.w3.org/2000/svg">
  <path d="M 485.231 261.832 C 475.048 261.558 467.269 262.499 460.618 265.284 C 458.726 266.074 455.715 266.096 455.409 268.45 C 456.446 269.537 456.608 271.149 457.43 272.483 C 459.022 275.031 461.704 278.456 464.091 280.246 C 466.704 282.203 469.398 284.305 472.204 286.004 C 477.183 289.026 482.747 290.752 487.548 293.773 C 490.376 295.558 493.183 297.8 495.946 299.816 C 497.312 300.805 498.22 302.359 500 302.977 L 500 302.692 C 499.07 301.515 498.828 299.897 497.973 298.666 L 494.204 294.918 C 490.527 290.063 485.855 285.805 480.882 282.262 C 476.925 279.434 468.059 275.617 466.409 271.037 L 466.118 270.752 C 468.925 270.434 472.215 269.429 474.801 268.735 C 479.156 267.574 483.048 267.875 487.543 266.719 L 493.624 264.988 L 493.624 263.843 C 491.355 261.526 489.731 258.461 487.253 256.364 C 480.774 250.875 473.694 245.397 466.409 240.816 C 462.366 238.284 457.371 236.639 453.086 234.493 C 451.651 233.768 449.118 233.397 448.161 232.187 C 445.909 229.338 444.688 225.73 442.946 222.407 C 439.237 215.23 435.758 207.934 432.527 200.537 C 430.333 195.547 428.898 190.623 426.156 186.149 C 413.011 164.666 398.855 151.698 376.93 138.956 C 372.269 136.241 366.651 135.176 360.72 133.778 L 351.161 133.198 C 349.22 132.397 347.199 130.031 345.371 128.886 C 338.102 124.327 319.473 114.407 314.097 127.45 C 310.699 135.682 319.177 143.714 322.204 147.881 C 324.328 150.811 327.054 154.085 328.575 157.375 C 329.575 159.542 329.747 161.709 330.602 163.999 C 332.704 169.628 334.538 175.768 337.263 180.972 C 338.64 183.606 340.156 186.386 341.893 188.741 C 342.957 190.182 344.79 190.827 345.075 193.058 C 343.29 195.542 343.188 199.402 342.183 202.553 C 337.656 216.73 339.36 234.359 345.946 244.854 C 347.968 248.08 352.726 254.988 359.269 252.338 C 364.989 250.02 363.715 242.843 365.349 236.51 C 365.72 235.074 365.495 234.02 366.22 233.058 L 366.22 233.343 L 371.43 243.703 C 375.29 249.881 382.134 256.327 387.936 260.682 C 390.946 262.94 393.317 266.843 397.204 268.166 L 397.204 267.87 L 396.914 267.87 C 396.156 266.703 394.984 266.225 394.016 265.284 C 391.753 263.074 389.231 260.332 387.36 257.8 C 382.081 250.687 377.419 242.891 373.172 234.778 C 371.14 230.907 369.382 226.639 367.672 222.692 C 367.011 221.176 367.016 218.875 365.645 218.096 C 363.769 220.977 361.011 223.316 359.559 226.725 C 357.247 232.176 356.946 238.821 356.091 245.714 L 355.511 245.999 C 351.473 245.037 350.059 240.907 348.559 237.37 C 344.769 228.424 344.059 214.004 347.398 203.703 C 348.263 201.037 352.161 192.639 350.581 190.176 C 349.828 187.719 347.339 186.3 345.952 184.418 C 344.134 181.897 342.581 179.198 341.317 176.359 C 338.215 169.381 336.763 161.547 333.505 154.493 C 331.941 151.117 329.301 147.709 327.134 144.709 C 324.737 141.386 322.043 138.94 320.183 134.924 C 319.522 133.499 318.618 131.209 319.602 129.741 C 319.909 128.752 320.36 128.338 321.344 128.015 C 323.022 126.73 327.699 128.445 329.446 129.166 C 334.091 131.085 337.968 132.907 341.903 135.499 C 343.79 136.741 345.699 139.149 347.984 139.811 L 350.591 139.811 C 354.667 140.741 359.237 140.096 363.043 141.246 C 369.774 143.284 375.806 146.445 381.285 149.881 C 397.973 160.359 411.613 175.262 420.952 193.047 C 422.452 195.913 423.108 198.644 424.425 201.682 C 427.091 207.805 430.457 214.106 433.108 220.096 C 435.758 226.074 438.344 232.101 442.091 237.074 C 444.059 239.687 451.661 241.09 455.118 242.542 C 457.543 243.558 461.511 244.623 463.801 245.993 C 468.188 248.623 472.436 251.752 476.543 254.628 C 478.597 256.08 484.914 259.23 485.231 261.832 Z" fill="#A07250"></path>
  <path d="M 128.629 303.106 L 145.188 303.106 L 145.188 338.924 C 145.032 340.864 145.817 345.434 154.887 345.58 C 159.516 345.655 190.624 345.58 190.914 345.58 L 190.914 302.929 L 207.516 302.929 C 207.586 302.929 207.511 353.848 207.5 360.596 L 207.5 361.332 C 207.586 375.676 189.591 378.789 181.296 379.031 L 128.984 379.031 L 128.984 367.956 L 129.172 367.956 C 132.543 367.956 181.263 367.967 181.387 367.95 C 192.054 366.832 190.79 361.569 190.785 359.795 L 190.785 355.477 L 155.581 355.477 C 139.199 355.327 128.763 348.225 128.629 340.047 C 128.624 339.3 128.989 303.467 128.629 303.106 Z" fill="#A07250"></path>
  <path d="M 0.005 356.026 L 16.57 356.026 L 16.57 291.015 L 42.215 347.692 C 45.242 354.553 49.382 356.977 57.505 356.977 C 65.629 356.977 69.613 354.553 72.64 347.692 L 98.285 291.015 L 98.285 356.026 L 114.849 356.026 L 114.849 291.128 C 114.849 284.795 112.301 281.73 107.043 280.149 C 94.457 276.246 86.016 279.623 82.194 288.069 L 57.027 343.999 L 32.656 288.063 C 28.995 279.623 20.393 276.246 7.806 280.144 C 2.548 281.73 0 284.789 0 291.123 L 0.005 356.026 Z" fill="#A07250"></path>
  <path d="M 220.285 356.026 L 267.914 356.026 C 273.489 356.026 278.909 354.87 283.21 352.864 C 290.376 349.596 293.876 345.166 293.876 339.354 L 293.876 327.321 C 293.876 322.574 289.898 318.139 282.091 315.187 C 277.952 313.601 272.849 312.762 267.909 312.762 L 247.839 312.762 C 241.151 312.762 237.962 310.762 237.167 306.327 C 237.011 305.8 237.011 305.381 237.011 304.848 L 237.011 297.359 C 237.011 296.934 237.011 296.51 237.167 295.988 C 237.962 292.606 239.715 291.66 245.613 291.128 L 247.204 291.026 L 294.516 291.026 L 294.516 280.053 L 248.005 280.053 C 241.312 280.053 237.812 280.472 234.624 281.424 C 224.747 284.488 220.441 289.338 220.441 297.784 L 220.441 307.381 C 220.441 314.773 228.893 321.106 243.065 322.585 C 244.661 322.682 246.247 322.795 247.844 322.795 L 265.048 322.795 C 265.683 322.795 266.323 322.795 266.801 322.897 C 272.059 323.316 274.285 324.268 275.882 326.166 C 276.29 326.542 276.618 326.999 276.833 327.504 C 277.054 328.015 277.161 328.563 277.151 329.117 L 277.151 338.725 C 277.151 339.881 276.36 341.359 274.763 342.628 C 273.333 343.891 270.941 344.741 267.758 344.95 L 266.005 345.053 L 220.285 345.053 L 220.285 356.026 Z" fill="#DCA780"></path>
  <path fill-rule="evenodd" clip-rule="evenodd" d="M 304.452 337.499 L 304.452 298.364 C 304.452 288.429 311.473 282.397 325.36 280.493 C 326.844 280.284 328.333 280.176 329.828 280.176 L 361.28 280.176 C 362.876 280.176 364.312 280.284 365.903 280.493 C 379.79 282.397 386.817 288.424 386.817 298.364 L 386.817 337.499 C 386.817 345.569 383.833 349.881 376.962 352.692 L 393.285 367.332 L 374.043 367.332 L 360.844 355.488 L 347.554 356.321 L 329.828 356.321 C 326.538 356.3 323.263 355.838 320.097 354.95 C 309.559 352.096 304.452 346.596 304.452 337.499 Z M 322.651 338.241 C 322.489 337.612 322.328 337.08 322.328 336.547 L 322.328 299.327 C 322.328 294.359 327.118 291.187 334.457 291.187 L 359.522 291.187 C 365.903 291.187 370.215 293.612 371.172 297.843 C 371.333 298.375 371.333 298.907 371.333 299.327 L 371.333 336.87 C 371.333 337.397 371.333 337.924 371.172 338.456 C 370.661 340.768 369.204 342.563 366.979 343.746 L 354.925 332.924 L 335.688 332.924 L 349.511 345.327 L 334.457 345.327 C 327.919 345.327 323.602 342.789 322.651 338.241 Z" fill="#DCA780"></path>
  <path d="M 397.226 336.929 C 397.226 348.219 405.672 354.547 422.71 355.816 C 424.301 355.924 425.898 356.026 427.489 356.026 L 470.656 356.026 L 470.656 345.053 L 427.172 345.053 C 417.457 345.053 413.796 342.628 413.796 336.821 L 413.796 280.047 L 397.231 280.047 L 397.226 336.929 Z" fill="#DCA780"></path>
  <path d="M 355.801 152.198 C 354.043 152.171 352.29 152.364 350.586 152.778 L 350.586 153.058 L 350.876 153.058 C 351.887 155.133 353.672 156.461 354.93 158.241 L 357.828 164.284 L 358.113 163.999 C 359.909 162.746 360.726 160.735 360.72 157.671 C 359.995 156.913 359.893 155.972 359.269 155.08 C 358.446 153.875 356.844 153.203 355.801 152.198 Z" fill="#A07250"></path>
</svg>