<svg viewBox="0 0 500 500" width="48" height="48" xmlns="http://www.w3.org/2000/svg">
  <path
    d="M 142.548 230.845 C 143.191 230.464 143.929 230.274 144.667 230.274 C 145.405 230.274 146.143 230.464 146.786 230.845 L 181.905 251.107 C 183.215 251.845 184.024 253.25 184.024 254.774 L 184.024 295.322 C 184.024 296.845 183.215 298.25 181.905 299.012 L 146.786 319.274 C 146.143 319.655 145.405 319.845 144.667 319.845 C 143.929 319.845 143.191 319.655 142.548 319.274 L 107.429 299.012 C 106.81 298.631 106.262 298.083 105.881 297.441 C 105.524 296.798 105.31 296.06 105.31 295.322 L 105.31 254.774 C 105.31 253.25 106.119 251.845 107.429 251.107 L 142.548 230.845 Z"
    fill="#DCA780"></path>
  <path
    d="M 459.929 319.869 C 458.738 319.869 457.524 319.536 456.477 318.917 L 445.405 312.393 C 443.762 311.464 444.572 311.131 445.119 310.941 C 447.31 310.179 447.762 310.012 450.119 308.679 C 450.357 308.536 450.667 308.583 450.929 308.726 L 459.429 313.774 C 459.572 313.869 459.762 313.917 459.929 313.917 C 460.119 313.917 460.286 313.869 460.453 313.774 L 493.548 294.679 C 493.715 294.583 493.834 294.441 493.929 294.298 C 494.024 294.131 494.072 293.964 494.072 293.774 L 494.072 255.56 C 494.072 255.369 494.024 255.202 493.929 255.036 C 493.834 254.869 493.715 254.75 493.548 254.655 L 460.453 235.56 C 460.286 235.464 460.119 235.417 459.953 235.417 C 459.762 235.417 459.596 235.464 459.429 235.56 L 426.334 254.655 C 426.191 254.75 426.048 254.893 425.953 255.036 C 425.857 255.202 425.81 255.369 425.81 255.56 L 425.81 293.774 C 425.81 294.131 426.024 294.488 426.334 294.655 L 435.405 299.893 C 440.334 302.369 443.357 299.464 443.357 296.56 L 443.357 258.822 C 443.357 258.298 443.786 257.869 444.31 257.869 L 448.5 257.869 C 449.024 257.869 449.453 258.298 449.453 258.822 L 449.453 296.56 C 449.453 303.107 445.881 306.893 439.667 306.893 C 437.738 306.893 436.238 306.893 432.024 304.822 L 423.357 299.822 C 422.31 299.202 421.429 298.322 420.81 297.25 C 420.191 296.202 419.881 295.012 419.881 293.774 L 419.881 255.56 C 419.881 253.083 421.215 250.774 423.357 249.536 L 456.453 230.393 C 457.524 229.822 458.715 229.512 459.929 229.512 C 461.143 229.512 462.357 229.822 463.405 230.393 L 496.524 249.536 C 498.667 250.774 500 253.083 500 255.56 L 500 293.774 C 500 295.012 499.667 296.202 499.072 297.25 C 498.453 298.322 497.572 299.202 496.524 299.822 L 463.405 318.941 C 462.357 319.536 461.167 319.869 459.929 319.869 Z"
    fill="#DCA780"></path>
  <path
    d="M 391.762 268.464 C 393.072 267.702 393.881 266.322 393.881 264.798 L 393.881 254.988 C 393.881 253.464 393.072 252.083 391.762 251.322 L 356.881 231.06 C 356.238 230.679 355.5 230.488 354.738 230.488 C 354 230.488 353.262 230.679 352.619 231.06 L 317.524 251.322 C 316.881 251.702 316.334 252.226 315.953 252.869 C 315.596 253.512 315.405 254.25 315.405 254.988 L 315.405 295.512 C 315.405 297.036 316.215 298.464 317.548 299.202 L 352.429 319.083 C 353.715 319.822 355.286 319.822 356.596 319.107 L 377.691 307.393 C 378.024 307.202 378.286 306.941 378.477 306.607 C 378.667 306.298 378.762 305.917 378.786 305.536 C 378.786 305.155 378.691 304.798 378.5 304.464 C 378.31 304.155 378.024 303.869 377.715 303.679 L 342.381 283.417 C 342.072 283.226 341.786 282.964 341.596 282.631 C 341.429 282.322 341.31 281.941 341.31 281.583 L 341.31 268.869 C 341.31 268.107 341.715 267.417 342.381 267.036 L 353.381 260.702 C 353.691 260.512 354.072 260.417 354.429 260.417 C 354.81 260.417 355.167 260.512 355.5 260.702 L 366.5 267.036 C 366.81 267.226 367.096 267.488 367.262 267.822 C 367.453 268.131 367.548 268.512 367.548 268.869 L 367.548 278.869 C 367.548 279.25 367.643 279.607 367.834 279.941 C 368.024 280.25 368.286 280.536 368.619 280.702 C 368.953 280.893 369.31 281.012 369.691 280.988 C 370.048 280.988 370.429 280.893 370.738 280.702 L 391.762 268.464 Z"
    fill="#A07250"></path>
  <path fill-rule="evenodd" clip-rule="evenodd"
    d="M 266.119 179.655 C 265.81 179.488 265.453 179.393 265.072 179.393 C 264.715 179.393 264.357 179.512 264.024 179.679 C 263.715 179.869 263.453 180.131 263.262 180.464 C 263.072 180.774 262.977 181.131 262.977 181.512 L 262.977 235.393 C 262.977 235.631 262.905 235.893 262.762 236.131 C 262.643 236.345 262.453 236.536 262.238 236.655 C 262 236.798 261.762 236.869 261.5 236.869 C 261.238 236.869 260.977 236.798 260.738 236.655 L 251.953 231.607 C 251.31 231.226 250.596 231.036 249.834 231.036 C 249.096 231.036 248.357 231.226 247.715 231.607 L 212.596 251.869 C 211.953 252.226 211.429 252.774 211.048 253.417 C 210.691 254.06 210.477 254.798 210.477 255.536 L 210.477 296.083 C 210.477 297.583 211.286 298.988 212.596 299.75 L 247.715 320.036 C 249.024 320.798 250.643 320.798 251.953 320.036 L 287.096 299.75 C 287.738 299.369 288.262 298.845 288.643 298.202 C 289 297.56 289.215 296.822 289.215 296.083 L 289.215 195.012 C 289.215 193.488 288.381 192.06 287.024 191.322 L 266.119 179.655 Z M 262.334 283.679 C 262.667 283.488 262.857 283.131 262.857 282.75 L 262.881 268.822 C 262.881 268.655 262.834 268.464 262.738 268.298 C 262.643 268.131 262.5 268.012 262.357 267.917 L 250.286 260.964 C 250.119 260.845 249.953 260.798 249.762 260.798 C 249.572 260.798 249.381 260.845 249.215 260.964 L 237.167 267.917 C 236.834 268.107 236.643 268.464 236.643 268.822 L 236.643 282.75 C 236.643 282.941 236.691 283.131 236.786 283.298 C 236.881 283.441 237 283.583 237.167 283.679 L 249.215 290.631 C 249.381 290.726 249.572 290.774 249.762 290.774 C 249.953 290.774 250.119 290.726 250.286 290.631 L 262.334 283.679 Z"
    fill="#A07250"></path>
  <path
    d="M 78.691 254.441 C 78.691 252.917 77.881 251.512 76.572 250.75 L 41.477 230.536 C 40.881 230.202 40.215 230.012 39.524 229.988 L 39.167 229.988 C 38.477 230.012 37.834 230.202 37.238 230.536 L 2.119 250.75 C 1.477 251.131 0.953 251.655 0.572 252.298 C 0.191 252.941 0 253.679 0 254.441 L 0.072 308.822 C 0.072 309.583 0.477 310.298 1.143 310.655 C 1.453 310.845 1.81 310.964 2.191 310.964 C 2.572 310.964 2.929 310.845 3.238 310.655 L 24.096 298.702 C 25.429 297.941 26.215 296.56 26.215 295.036 L 26.215 269.631 C 26.215 268.107 27.024 266.702 28.334 265.941 L 37.215 260.822 C 37.857 260.464 38.596 260.25 39.334 260.25 C 40.072 260.25 40.81 260.441 41.453 260.822 L 50.334 265.941 C 51.643 266.702 52.453 268.107 52.453 269.631 L 52.453 295.036 C 52.453 296.56 53.262 297.941 54.572 298.702 L 75.429 310.655 C 75.762 310.845 76.119 310.941 76.5 310.941 C 76.857 310.941 77.238 310.845 77.548 310.655 C 77.857 310.464 78.143 310.202 78.334 309.893 C 78.5 309.56 78.596 309.202 78.596 308.822 L 78.691 254.441 Z"
    fill="#A07250"></path>
  <path
    d="M 470.167 293.536 C 455.667 293.536 452.643 286.893 452.643 281.298 C 452.643 281.06 452.738 280.798 452.929 280.631 C 453.096 280.441 453.357 280.345 453.596 280.345 L 457.881 280.345 C 458.119 280.345 458.334 280.441 458.5 280.583 C 458.667 280.726 458.786 280.941 458.834 281.155 C 459.477 285.512 461.405 287.726 470.167 287.726 C 477.143 287.726 480.119 286.131 480.119 282.441 C 480.119 280.298 479.262 278.726 468.429 277.655 C 459.381 276.75 453.762 274.75 453.762 267.512 C 453.762 260.822 459.405 256.845 468.834 256.845 C 479.453 256.845 484.691 260.512 485.357 268.417 C 485.357 268.56 485.357 268.702 485.31 268.822 C 485.262 268.941 485.191 269.06 485.096 269.155 C 485 269.25 484.905 269.322 484.786 269.369 C 484.667 269.441 484.524 269.464 484.405 269.464 L 480.096 269.464 C 479.881 269.464 479.667 269.393 479.5 269.25 C 479.334 269.107 479.215 268.941 479.167 268.726 C 478.143 264.131 475.643 262.655 468.834 262.655 C 461.215 262.655 460.334 265.322 460.334 267.298 C 460.334 269.702 461.381 270.417 471.667 271.774 C 481.834 273.107 486.667 275.012 486.667 282.179 C 486.667 289.393 480.667 293.536 470.167 293.536 Z"
    fill="#DCA780"></path>
  <path
    d="M 354.238 266.583 C 354.357 266.512 354.5 266.464 354.643 266.464 C 354.786 266.464 354.905 266.512 355.048 266.583 L 361.786 270.464 C 362.024 270.607 362.191 270.869 362.191 271.179 L 362.191 278.941 C 362.191 279.25 362.024 279.512 361.786 279.655 L 355.048 283.536 C 354.905 283.607 354.786 283.655 354.643 283.655 C 354.5 283.655 354.357 283.607 354.238 283.536 L 347.5 279.655 C 347.381 279.583 347.262 279.488 347.191 279.369 C 347.119 279.226 347.096 279.083 347.096 278.941 L 347.096 271.179 C 347.096 270.869 347.238 270.607 347.5 270.464 L 354.238 266.583 Z"
    fill="#DCA780"></path>
</svg>