<svg viewBox="0 0 500 500" width="48" height="48" xmlns="http://www.w3.org/2000/svg">
  <defs></defs>
  <path fill-rule="evenodd" clip-rule="evenodd" d="M 386.351 127.747 L 386.351 180.714 C 386.351 221.775 351.047 256.336 310.802 256.336 L 190.015 256.336 C 156.928 256.336 129.556 284.274 129.556 316.95 L 129.556 430.538 C 129.556 462.861 158.049 481.882 190.015 491.151 C 228.294 502.245 265.002 504.255 310.802 491.151 C 341.248 482.454 371.26 464.955 371.26 430.538 L 371.26 385.072 L 250.483 385.072 L 250.483 369.916 L 431.738 369.916 C 466.872 369.916 479.976 345.74 492.207 309.45 C 504.826 272.086 504.287 236.15 492.207 188.224 C 483.514 153.705 466.935 127.738 431.738 127.738 L 386.351 127.747 Z M 341.1 438.048 C 341.1 425.509 330.952 415.383 318.406 415.383 C 305.924 415.383 295.722 425.509 295.722 438.048 C 295.722 450.622 305.924 460.84 318.406 460.84 C 330.952 460.84 341.1 450.622 341.1 438.048 Z" fill="#A07250" style="transform-origin: 250.788px 248.905px;"></path>
  <path fill-rule="evenodd" clip-rule="evenodd" d="M 247.8 0.263 C 227.123 0.356 207.385 2.095 190.015 5.127 C 138.838 14.044 129.556 32.709 129.556 67.135 L 129.556 112.592 L 250.483 112.592 L 250.483 127.747 L 84.169 127.747 C 49.023 127.747 18.251 148.58 8.619 188.224 C -2.489 233.661 -2.975 262.013 8.619 309.45 C 17.215 344.771 37.745 369.927 72.889 369.927 L 114.476 369.927 L 114.476 315.429 C 114.476 276.055 149.009 241.327 190.025 241.327 L 310.811 241.327 C 344.437 241.327 371.27 214.016 371.27 180.714 L 371.27 67.135 C 371.27 34.803 343.624 10.522 310.811 5.127 C 290.029 1.721 268.478 0.168 247.8 0.263 Z M 205.093 59.625 C 205.093 47.052 194.893 36.824 182.399 36.824 C 169.865 36.824 159.706 47.052 159.717 59.625 C 159.717 72.155 169.865 82.28 182.399 82.28 C 194.893 82.28 205.093 72.155 205.093 59.625 Z" fill="#DCA780" style="transform-origin: 250.788px 248.905px;"></path>
</svg>