<svg width="48" height="48" viewBox="0 0 48 48" fill="none" xmlns="http://www.w3.org/2000/svg">
<path fill-rule="evenodd" clip-rule="evenodd" d="M7.0296 10.4232C6.0912 9.48484 6.0912 7.96549 7.0296 7.02949C7.968 6.09109 9.48721 6.09109 10.4232 7.02949C11.3616 7.96549 11.3616 9.48484 10.4232 10.4232C9.48721 11.3616 7.968 11.3616 7.0296 10.4232ZM40.9704 37.5768C41.9088 38.5128 41.9088 40.0321 40.9704 40.9705C40.0344 41.9065 38.5128 41.9065 37.5768 40.9705C36.6384 40.0321 36.6384 38.5128 37.5768 37.5768C38.5128 36.6384 40.0344 36.6384 40.9704 37.5768ZM10.4232 37.5768C11.3616 38.5128 11.3616 40.0321 10.4232 40.9705C9.48721 41.9065 7.968 41.9065 7.0296 40.9705C6.0912 40.0321 6.0912 38.5128 7.0296 37.5768C7.968 36.6384 9.48721 36.6384 10.4232 37.5768ZM40.9704 7.02949C41.9088 7.96549 41.9088 9.48484 40.9704 10.4232C40.0344 11.3616 38.5128 11.3616 37.5768 10.4232C36.6384 9.48484 36.6384 7.96549 37.5768 7.02949C38.5128 6.09109 40.0344 6.09109 40.9704 7.02949ZM4.8 24C4.8 25.3248 3.7248 26.4 2.4 26.4C1.0752 26.4 0 25.3248 0 24C0 22.6752 1.0752 21.6 2.4 21.6C3.7248 21.6 4.8 22.6752 4.8 24ZM48 24C48 25.3248 46.9248 26.4 45.6 26.4C44.2752 26.4 43.2 25.3248 43.2 24C43.2 22.6752 44.2752 21.6 45.6 21.6C46.9248 21.6 48 22.6752 48 24ZM26.4 45.6C26.4 46.9248 25.3248 48 24 48C22.6752 48 21.6 46.9248 21.6 45.6C21.6 44.2752 22.6752 43.2 24 43.2C25.3248 43.2 26.4 44.2752 26.4 45.6ZM21.6 2.4C21.6 1.0752 22.6752 0 24 0C25.3248 0 26.4 1.0752 26.4 2.4C26.4 3.7248 25.3248 4.8 24 4.8C22.6752 4.8 21.6 3.7248 21.6 2.4ZM32.4864 32.4838C27.2112 37.759 18.2088 37.0873 13.884 30.4729C11.2824 26.4937 11.3784 21.1609 14.076 17.2465C16.8504 13.2169 21.3792 11.5731 25.6536 12.1635L18.9096 18.9094C17.9712 19.8454 17.9712 21.3647 18.9096 22.3031C19.8456 23.2391 21.3648 23.2391 22.3032 22.3031L30.6168 13.9898C31.968 14.8826 33.1176 16.0318 34.0104 17.383L25.6968 25.6969C24.7608 26.6329 24.7608 28.1546 25.6968 29.0906C26.6352 30.029 28.1544 30.029 29.0904 29.0906L35.8368 22.3465C36.3336 25.9441 35.2464 29.7238 32.4864 32.4838ZM35.88 12.1201C29.3184 5.55852 18.6816 5.55852 12.12 12.1201C5.56081 18.6817 5.56081 29.3183 12.12 35.8799C18.6816 42.4391 29.3184 42.4391 35.88 35.8799C42.4392 29.3183 42.4392 18.6817 35.88 12.1201Z" fill="#A07250"/>
</svg>
