<svg viewBox="0 0 500 500" xmlns="http://www.w3.org/2000/svg">
  <path fill-rule="evenodd" clip-rule="evenodd"
    d="M 478.751 114.306 C 465.186 90.59 450.471 86.2 420.5 84.473 C 390.565 82.414 315.279 81.414 250.065 81.265 C 184.721 81.116 109.407 81.775 79.5 83.672 C 49.593 85.289 34.842 89.577 21.157 113.267 C 7.186 136.886 0 177.612 0 249.34 L 0 249.434 L 0 249.526 L 0 249.59 C 0 321.012 7.186 362.078 21.157 385.517 C 34.842 409.235 49.564 413.56 79.471 415.623 C 109.407 417.411 184.721 418.589 250.065 418.738 C 315.279 418.887 390.565 418.05 420.529 416.423 C 450.5 414.5 465.222 410.241 478.78 386.586 C 492.871 363.211 500 322.177 500 250.755 L 500 250.597 L 500 250.505 C 500 178.748 492.871 137.99 478.751 114.306 Z M 187.5 157.823 L 187.5 341.903 L 343.75 250.215 L 187.5 157.823 Z"
    fill="#A07250"></path>
</svg>