<svg viewBox="0 0 500 500" height="24" width="24" xmlns="http://www.w3.org/2000/svg">

<path fill-rule="evenodd" clip-rule="evenodd" d="M 478.77 106.808 C 465.227 83.131 450.537 78.748 420.615 77.024 C 390.729 74.968 315.567 73.97 250.461 73.821 C 185.225 73.672 110.035 74.33 80.177 76.224 C 50.319 77.838 35.593 82.119 21.93 105.77 C 7.982 129.35 0.808 170.009 0.808 241.619 L 0.808 241.713 L 0.808 241.805 L 0.808 241.869 C 0.808 313.173 7.982 354.171 21.93 377.572 C 35.593 401.25 50.29 405.568 80.148 407.628 C 110.035 409.413 185.225 410.589 250.461 410.738 C 315.567 410.887 390.729 410.051 420.644 408.427 C 450.566 406.507 465.263 402.255 478.799 378.639 C 492.867 355.302 499.984 314.336 499.984 243.032 L 499.984 242.874 L 499.984 242.782 C 499.984 171.143 492.867 130.452 478.77 106.808 Z M 187.999 150.253 L 187.999 334.029 L 343.992 242.493 L 187.999 150.253 Z" fill="#A07250" style=""></path>

</svg>